<?xml version="1.0" encoding="utf-8"?>
<svg viewBox="0 0 500 500" width="500" height="500" xmlns="http://www.w3.org/2000/svg" xmlns:bx="https://boxy-svg.com">
  <ellipse style="stroke: rgb(0, 0, 0); fill: rgb(61, 0, 0);" cx="250.762" cy="252.032" rx="246.698" ry="247.459"/>
  <path style="stroke: rgb(0, 0, 0); fill: rgb(255, 255, 255);" d="M 137.287 194.86 C 137.287 194.86 111.47623473066649 180.33381120816244 100.893 182.768 C 90.42466774945846 185.1757607349728 77.06202503181645 199.28767901845987 74.032 208.967 C 71.44417276891419 217.23373382280064 73.5866490107346 228.7347005624386 79.231 235.838 C 86.43479565116972 244.90382841757702 110.69717454590293 244.2258131247403 119.956 253.977 C 128.8379569786047 263.33127746702655 135.1905461526907 280.1559453908205 134.686 292.268 C 134.2145634593599 303.5852305339056 127.97698092409186 318.73726784153524 119.09 324.513 C 109.51104656465252 330.7384515761354 88.31694388516483 328.955679071776 77.498 325.858 C 69.46488955243346 323.5579605156642 58.494234465832065 316.8997159054328 58.435 313.093 C 58.38897182632866 310.13498934941987 65.66198630596942 305.2966450606047 69.7 305.031 C 74.00035192941773 304.7480967372893 78.1926351380173 311.16444204121586 83.564 312.422 C 89.9973889367451 313.92820180666183 101.72770208438602 315.86845515974096 106.092 311.75 C 111.09970578189788 307.02438041245176 110.46157836305191 291.0305779840159 108.693 282.191 C 107.09356417510664 274.1968177800071 102.66713796480845 266.69493096181867 97.428 260.695 C 92.05623181604093 254.54317913497587 82.4470351629923 251.38785688967113 76.632 245.915 C 71.39305121451741 240.9843304250788 66.27217352515848 236.15767337350425 63.635 229.793 C 60.77684171561759 222.89499205462752 59.777882390414945 213.3887446531415 61.034 205.608 C 62.30988102537057 197.70483520838775 65.9186183167552 188.56434224209033 71.433 182.768 C 77.08185023501859 176.83031357978584 86.63921759244805 172.43568393226454 94.827 170.675 C 102.83086515494405 168.95386525644307 112.29959402122536 169.44237156394829 119.956 172.02 C 127.60689049224432 174.59577157593242 140.752 186.126 140.752 186.126" bx:d="M 137.287 194.86 R 100.893 182.768 R 74.032 208.967 R 79.231 235.838 R 119.956 253.977 R 134.686 292.268 R 119.09 324.513 R 77.498 325.858 R 58.435 313.093 R 69.7 305.031 R 83.564 312.422 R 106.092 311.75 R 108.693 282.191 R 97.428 260.695 R 76.632 245.915 R 63.635 229.793 R 61.034 205.608 R 71.433 182.768 R 94.827 170.675 R 119.956 172.02 R 140.752 186.126 1@4e2b6d76"/>
  <path style="stroke: rgb(0, 0, 0); fill: rgb(255, 255, 255);" d="M 190.04 214.657 C 190.04 214.657 180.50786761459315 313.82141196251615 189.532 322.888 C 192.5611315381544 325.9313826316874 198.53802546774614 325.93210609139294 201.727 322.888 C 211.27695874066325 313.77187590400155 216.57695905181902 223.27216273286945 206.808 213.64 C 202.97934496055865 209.86495823840582 190.04 214.657 190.04 214.657 C 190.04 214.657 190.04 214.657 190.04 214.657 C 190.04 214.657 190.04 214.657 190.04 214.657" bx:d="M 190.04 214.657 R 189.532 322.888 R 201.727 322.888 R 206.808 213.64 R 190.04 214.657 R 190.04 214.657 Z 1@ce7e3001"/>
  <ellipse style="stroke: rgb(0, 0, 0); fill: rgb(255, 255, 255);" cx="203.76" cy="177.055" rx="15.752" ry="15.244"/>
  <path style="stroke: rgb(0, 0, 0); fill: rgb(255, 255, 255);" d="M 308.435 134.259 C 308.435 134.259 284.549 143.259 279.98 151.536 C 275.571 159.523 279.131 172.364 280.488 182.532 C 281.844 192.689 282.036 205.906 288.11 212.511 C 294.048 218.968 307.843 221.415 316.057 222.166 C 322.278 222.734 329.018 222.856 332.825 219.625 C 336.935 216.137 339.363 206.679 338.923 200.824 C 338.514 195.387 335.188 188.083 331.301 185.58 C 327.812 183.334 320.978 182.863 317.581 185.072 C 313.569 187.682 314.321 201.392 310.467 202.857 C 306.955 204.192 299.47 199.881 296.24 195.743 C 292.32 190.722 290.403 179.419 291.159 172.877 C 291.768 167.602 294.213 162.122 297.764 159.158 C 301.322 156.188 307.729 155.642 312.5 155.093 C 316.851 154.592 322.091 157.474 325.203 155.601 C 328.48 153.63 331.258 147.006 331.301 142.897 C 331.341 139.061 329.365 133.442 326.22 131.719 C 322.416 129.635 308.435 134.259 308.435 134.259 C 308.435 134.259 308.435 134.259 308.435 134.259 C 308.435 134.259 308.435 134.259 308.435 134.259" bx:d="M 308.435 134.259 R 279.98 151.536 R 280.488 182.532 R 288.11 212.511 R 316.057 222.166 R 332.825 219.625 R 338.923 200.824 R 331.301 185.58 R 317.581 185.072 R 310.467 202.857 R 296.24 195.743 R 291.159 172.877 R 297.764 159.158 R 312.5 155.093 R 325.203 155.601 R 331.301 142.897 R 326.22 131.719 R 308.435 134.259 R 308.435 134.259 Z 1@dffefb94"/>
  <path style="stroke: rgb(0, 0, 0); fill: rgb(255, 255, 255);" d="M 389.228 146.963 C 389.228 146.963 371.311 209.009 376.524 217.084 C 378.523 220.18 383.63 221.233 386.687 219.625 C 392.712 216.456 395.638 181.751 400.915 181.515 C 406.148 181.281 410.825 213.995 418.191 217.593 C 422.942 219.914 432.053 218.367 434.451 214.036 C 439.451 205.008 421.315 153.465 410.061 145.946 C 404.018 141.908 389.228 146.963 389.228 146.963 C 389.228 146.963 389.228 146.963 389.228 146.963 C 389.228 146.963 389.228 146.963 389.228 146.963" bx:d="M 389.228 146.963 R 376.524 217.084 R 386.687 219.625 R 400.915 181.515 R 418.191 217.593 R 434.451 214.036 R 410.061 145.946 R 389.228 146.963 R 389.228 146.963 Z 1@e07161b6"/>
  <path style="stroke: rgb(0, 0, 0); fill: rgb(255, 255, 255);" d="M 289.634 256.041 C 289.634 256.041 279.742 336.509 285.569 338.358 C 290.077 339.788 303.574 296.482 311.992 296.692 C 320.335 296.9 330.73 340.001 335.874 338.866 C 342.292 337.45 349.1 267.401 341.972 263.663 C 337.04 261.077 322.606 287.435 314.024 286.529 C 305.1 285.587 289.634 256.041 289.634 256.041 C 289.634 256.041 289.634 256.041 289.634 256.041 C 289.634 256.041 289.634 256.041 289.634 256.041" bx:d="M 289.634 256.041 R 285.569 338.358 R 311.992 296.692 R 335.874 338.866 R 341.972 263.663 R 314.024 286.529 R 289.634 256.041 R 289.634 256.041 Z 1@6cd692d5"/>
  <path style="stroke: rgb(0, 0, 0); fill: rgb(255, 255, 255);" d="M 386.319 287.013 C 386.319 287.013 373.651675106238 336.4381050397024 381.021 345.661 C 386.2823911093641 352.24576295268025 405.6754903464116 353.4821037947171 410.775 349.624 C 414.9394784085108 346.4733068858909 416.6397836115761 333.81403435467115 413.628 329.81 C 410.20060415760986 325.2534273939072 390.4454971263236 330.4679955264717 387.95 326.244 C 385.85651824900486 322.70047456064964 390.128063467349 311.5519192090668 394.472 309.205 C 399.474379986758 306.5023404206693 414.2103067582539 317.36897492204423 418.112 314.356 C 421.6442536545851 311.62831460287737 422.03804625049014 298.14654396082227 418.927 294.543 C 415.893503936422 291.02928289651334 402.9682001185561 295.83556487172956 400.178 292.561 C 397.68259554546466 289.63240584174025 398.17538578382545 279.74331080387617 400.993 277.503 C 404.2933245116941 274.8788818303081 418.04777296410936 283.8629133824127 421.373 281.069 C 424.5612341231501 278.390190436987 424.96093292553735 265.27026346857303 421.373 262.049 C 416.63217361868584 257.79266323175125 393.73266465971255 260.1722280898978 388.358 265.615 C 384.0338138918999 269.99398179204366 386.319 287.013 386.319 287.013 C 386.3190000000001 287.01300000000003 386.319 287.013 386.319 287.013 C 386.319 287.013 386.3190000000001 287.01300000000003 386.319 287.013" bx:d="M 386.319 287.013 R 381.021 345.661 R 410.775 349.624 R 413.628 329.81 R 387.95 326.244 R 394.472 309.205 R 418.112 314.356 R 418.927 294.543 R 400.178 292.561 R 400.993 277.503 R 421.373 281.069 R 421.373 262.049 R 388.358 265.615 R 386.319 287.013 R 386.319 287.013 Z 1@f44dd832"/>
</svg>